<?xml version="1.0" encoding="utf-8"?>
<!-- Generator: Adobe Illustrator 19.1.0, SVG Export Plug-In . SVG Version: 6.00 Build 0)  -->
<svg version="1.1" id="Layer_1" xmlns="http://www.w3.org/2000/svg" xmlns:xlink="http://www.w3.org/1999/xlink" x="0px" y="0px"
	 viewBox="0 0 2061.9 726" enable-background="new 0 0 2061.9 726" xml:space="preserve">
<g>
	<path fill="#010101" d="M1954.3,0l14.4,0c4,0,7.9,0.1,11.8,0.2c7.2,0.2,15.6,0.5,23.8,2.1c7.5,1.4,13.9,3.4,20.1,6.5
		c6.1,3.2,11.7,7.3,16.7,12.2c4.9,4.9,9,10.5,12.2,16.7c3.1,6.1,5.2,12.5,6.5,20c1.5,8.1,1.8,16.5,2,23.7c0.1,4,0.2,7.9,0.2,11.9
		c0,4.8,0,9.5,0,14.3v510.6c0,4.7,0,9.6,0,14.3c0,4,0,7.9-0.2,11.9c-0.2,7.2-0.6,15.6-2,23.7c-1.3,7.4-3.4,13.8-6.5,20.1
		c-3.2,6.1-7.3,11.7-12.2,16.7c-5,4.8-10.6,8.9-16.7,12c-6.1,3.3-12.5,5.3-20,6.7c-8.3,1.4-17,2-23.7,2.1c-3.9,0.1-7.9,0.1-11.9,0.2
		c-4.8,0-9.6,0-14.4,0H107.6c0,0-0.1,0-0.1,0c-4.8,0-9.5,0-14.3,0c-3.9,0-7.9-0.1-11.8-0.2c-6.7-0.2-15.5-0.7-23.7-2.1
		c-7.5-1.4-13.9-3.4-20.1-6.7c-6.2-3.1-11.8-7.1-16.7-12c-4.9-5-9-10.6-12.2-16.7c-3.1-6.3-5.2-12.7-6.5-20.1
		c-1.6-8.1-1.9-16.5-2.1-23.7c-0.2-4-0.2-7.9-0.2-11.9v-11.5v-2.9V107.7v-2.9V93.4c0-4,0.1-7.9,0.2-11.9c0.2-7.1,0.5-15.5,2.1-23.7
		c1.3-7.5,3.4-13.9,6.5-20C12,31.6,16.1,26,21,21c4.9-4.9,10.5-9,16.7-12.2c6.2-3.1,12.5-5.2,20-6.5c8.1-1.5,16.5-1.9,23.7-2
		c4-0.2,7.9-0.2,11.9-0.2l14.3,0L1954.3,0"/>
	<g>
		<g>
			<path fill="#FFFFFF" d="M556.2,358.8c-0.6-61.5,50.4-91.4,52.7-92.8c-28.8-42-73.5-47.8-89.3-48.3c-37.5-4-74,22.5-93.1,22.5
				c-19.5,0-49-22.1-80.7-21.4c-40.8,0.6-79.1,24.3-100,61c-43.3,74.9-11,184.9,30.4,245.4c20.7,29.6,45,62.7,76.7,61.6
				c31-1.3,42.6-19.8,80-19.8c37.1,0,48,19.8,80.3,19c33.3-0.6,54.2-29.8,74.3-59.7c24-34,33.6-67.4,34-69.2
				C620.7,456.9,556.9,432.5,556.2,358.8z"/>
			<path fill="#FFFFFF" d="M495.2,177.9c16.7-20.9,28.1-49.2,24.9-78c-24.1,1.1-54.3,16.7-71.7,37.1c-15.4,18-29.1,47.5-25.6,75.2
				C449.9,214.2,477.8,198.5,495.2,177.9z"/>
		</g>
	</g>
	<g>
		<path fill="#FFFFFF" d="M925.6,231.1c-11.6,4.4-23.9,6.6-36.8,6.6c-19.2,0-34.2-5.2-45-15.7c-11.1-10.8-16.7-25.6-16.7-44.5
			c0-18.7,6-33.8,17.9-45.2c11.9-11.4,27.6-17.1,47.1-17.1c12.4,0,22.5,1.8,30.1,5.5l-4.3,15.7c-7.4-3.3-16.1-5-26.1-5
			c-13.4,0-24.1,3.9-32,11.6c-8.2,8.1-12.3,19.2-12.3,33.4c0,14.2,3.9,25.4,11.7,33.6c7.5,7.8,17.7,11.7,30.6,11.7
			c8.1,0,13.9-0.8,17.4-2.5v-32.6h-21.9v-15.1h40.4L925.6,231.1L925.6,231.1z"/>
		<path fill="#FFFFFF" d="M1025.8,189.1c0,3.4-0.2,6.4-0.7,8.7h-57.6c0.2,8.5,3,15.1,8.4,19.6c4.9,4,11.1,6.1,18.9,6.1
			c8.5,0,16.3-1.4,23.3-4.1l3,13.3c-8.2,3.6-17.9,5.3-29,5.3c-13.4,0-23.9-4-31.6-11.8c-7.6-7.9-11.5-18.5-11.5-31.8
			c0-13,3.6-23.9,10.7-32.6c7.5-9.2,17.5-13.9,30.2-13.9c12.4,0,21.9,4.6,28.3,13.9C1023.2,169.3,1025.8,178.3,1025.8,189.1z
			 M1007.5,184.1c0.1-5.7-1.1-10.6-3.7-14.8c-3.3-5.3-8.4-8-15.3-8c-6.3,0-11.4,2.6-15.3,7.8c-3.2,4.2-5.1,9.1-5.7,14.9
			L1007.5,184.1L1007.5,184.1z"/>
		<path fill="#FFFFFF" d="M1094.4,164.4h-21.2v42c0,10.7,3.7,16,11.2,16c3.4,0,6.3-0.3,8.5-0.9l0.5,14.6c-3.8,1.4-8.8,2.1-14.9,2.1
			c-7.6,0-13.5-2.3-17.8-6.9c-4.3-4.6-6.4-12.4-6.4-23.3v-43.6h-12.6V150h12.6v-15.8l18.8-5.7V150h21.2V164.4z"/>
		<path fill="#FFFFFF" d="M1188.7,124.2c0,3.4-1.1,6.2-3.4,8.4c-2.2,2.1-5.2,3.2-8.7,3.2c-3.2,0-5.9-1.1-8.1-3.3
			c-2.2-2.2-3.3-4.9-3.3-8.3c0-3.3,1.1-6.1,3.4-8.2c2.2-2.1,5-3.2,8.4-3.2c3.3,0,6.1,1.1,8.4,3.2
			C1187.6,118.1,1188.7,120.9,1188.7,124.2z M1186.6,236.4h-19.2V150h19.2V236.4z"/>
		<path fill="#FFFFFF" d="M1261.5,164.4h-21.1v42c0,10.7,3.7,16,11.2,16c3.4,0,6.3-0.3,8.5-0.9l0.5,14.6c-3.8,1.4-8.8,2.1-14.9,2.1
			c-7.6,0-13.5-2.3-17.8-6.9c-4.3-4.6-6.4-12.4-6.4-23.3v-43.6h-12.6V150h12.6v-15.8l18.8-5.7V150h21.1L1261.5,164.4L1261.5,164.4z"
			/>
		<path fill="#FFFFFF" d="M1413.4,192.5c0,13.3-3.8,24.2-11.4,32.7c-8,8.8-18.5,13.2-31.7,13.2c-12.7,0-22.8-4.2-30.3-12.6
			c-7.6-8.4-11.3-19-11.3-31.8c0-13.4,3.9-24.4,11.6-32.9c7.7-8.5,18.2-12.8,31.4-12.8c12.7,0,22.9,4.2,30.6,12.6
			C1409.7,169,1413.4,179.6,1413.4,192.5z M1393.4,193.1c0-8-1.7-14.8-5.2-20.5c-4-6.9-9.8-10.3-17.3-10.3
			c-7.7,0-13.6,3.5-17.6,10.3c-3.4,5.7-5.2,12.7-5.2,20.9c0,8,1.7,14.8,5.2,20.5c4.2,6.9,10,10.3,17.4,10.3
			c7.4,0,13.1-3.5,17.3-10.5C1391.7,208,1393.4,201.1,1393.4,193.1z"/>
		<path fill="#FFFFFF" d="M1513.9,236.4h-19.2v-49.5c0-15.3-5.8-22.9-17.4-22.9c-5.7,0-10.3,2.1-13.9,6.3c-3.6,4.2-5.3,9.1-5.3,14.8
			v51.3h-19.2v-61.7c0-7.6-0.2-15.8-0.7-24.7h16.9l0.9,13.5h0.5c2.3-4.2,5.6-7.7,9.9-10.4c5.2-3.2,11-4.8,17.4-4.8
			c8.1,0,14.8,2.6,20.1,7.8c6.6,6.4,9.9,15.9,9.9,28.6L1513.9,236.4L1513.9,236.4z"/>
	</g>
	<g>
		<path fill="#FFFFFF" d="M879.2,344.6c0,7.3-2.4,13.2-7.2,17.7c-4.8,4.5-10.9,6.8-18.5,6.8c-6.8,0-12.5-2.3-17.2-7s-7-10.5-7-17.5
			c0-7,2.4-12.8,7.2-17.3c4.8-4.5,10.7-6.8,17.7-6.8c7,0,12.9,2.3,17.7,6.8C876.8,331.8,879.2,337.6,879.2,344.6z M874.6,582.5
			h-40.7V399.3h40.7V582.5z"/>
		<path fill="#FFFFFF" d="M1093.7,362.7h-72.7v219.8h-40.7V362.7h-72.4v-34.3h185.8V362.7z"/>
		<path fill="#FFFFFF" d="M1263.3,582.5h-35.8l-2.3-27.9h-0.8c-12.8,21.4-32.2,32-58,32c-18.1,0-32.5-5.6-43.3-17
			c-12.8-13.8-19.2-34.7-19.2-62.6V399.3h40.7v101c0,35.2,12.1,52.8,36.2,52.8c18.1,0,30.7-8.8,37.7-26.4c1.8-4.5,2.6-9.7,2.6-15.5
			v-112h40.7v130.4C1261.8,547.1,1262.3,564.6,1263.3,582.5z"/>
		<path fill="#FFFFFF" d="M1477.5,582.5h-40.7V477.6c0-32.4-12.3-48.5-37-48.5c-12.1,0-21.9,4.4-29.4,13.3
			c-7.5,8.9-11.3,19.4-11.3,31.4v108.7h-40.7V451.7c0-16.1-0.5-33.6-1.5-52.4h35.8l1.9,28.7h1.1c4.8-8.9,11.8-16.3,21.1-22.1
			c11.1-6.9,23.4-10.3,37-10.3c17.1,0,31.3,5.5,42.6,16.6c14.1,13.6,21.1,33.8,21.1,60.7L1477.5,582.5L1477.5,582.5z"/>
		<path fill="#FFFFFF" d="M1685.1,482.2c0,7.3-0.5,13.5-1.5,18.5h-122.1c0.5,18.1,6.4,31.9,17.7,41.5c10.3,8.5,23.6,12.8,40,12.8
			c18.1,0,34.5-2.9,49.4-8.7l6.4,28.3c-17.4,7.5-37.8,11.3-61.5,11.3c-28.4,0-50.7-8.4-66.9-25.1c-16.2-16.7-24.3-39.1-24.3-67.3
			c0-27.6,7.6-50.6,22.6-69c15.8-19.6,37.2-29.4,64.1-29.4c26.4,0,46.4,9.8,59.9,29.4C1679.7,440.1,1685.1,459.4,1685.1,482.2z
			 M1646.3,471.7c0.2-12.1-2.4-22.5-7.9-31.3c-7-11.3-17.8-17-32.4-17c-13.3,0-24.1,5.5-32.4,16.6c-6.8,8.8-10.8,19.4-12.1,31.6
			L1646.3,471.7L1646.3,471.7z"/>
		<path fill="#FFFFFF" d="M1842.4,529.9c0,17-6.3,30.7-18.8,41c-12.6,10.3-29.9,15.4-52,15.4c-20.9,0-38.6-4.1-53.2-12.4l8.7-30.2
			c14.1,8.6,29,12.8,44.9,12.8c20.9,0,31.3-7.6,31.3-23c0-6.8-2.3-12.4-6.8-16.8c-4.5-4.4-12.6-8.7-24.1-13
			c-32.7-12.1-49-29.7-49-52.8c0-15.8,6-29,18.1-39.6c12.1-10.6,28-15.8,47.9-15.8c18.1,0,33.6,3.7,46.4,11.1l-8.7,29.3
			c-11.8-7-24.3-10.6-37.3-10.6c-8.5,0-15.2,2-20,6c-4.8,4-7.2,9.1-7.2,15.4c0,6.3,2.5,11.4,7.6,15.4c4.3,3.8,12.6,7.9,24.9,12.4
			C1826.5,486.6,1842.4,505,1842.4,529.9z"/>
	</g>
</g>
</svg>
