<?xml version="1.0" encoding="utf-8"?>
<!-- Generator: Adobe Illustrator 19.1.0, SVG Export Plug-In . SVG Version: 6.00 Build 0)  -->
<svg version="1.1" id="Layer_1" xmlns="http://www.w3.org/2000/svg" xmlns:xlink="http://www.w3.org/1999/xlink" x="0px" y="0px"
	 viewBox="0 0 723.1 726" enable-background="new 0 0 723.1 726" xml:space="preserve">
<g id="lines__x003C_Group_x003E_">
	<path id="circle" d="M192.8,628.8c0,53.2-43.2,96.4-96.4,96.4C43.2,725.2,0,682,0,628.8s43.2-96.4,96.4-96.4
		C149.6,532.4,192.8,575.6,192.8,628.8z"/>
	<g>
		<path d="M0.1,385.8c90.3,0,175.2,35.3,239,99.4c63.9,64.2,99.1,149.6,99.1,240.6h139.1c0-264.2-214.1-479.2-477.2-479.2V385.8z"/>
	</g>
	<g>
		<path d="M0.3,139.1C322.2,139.1,584,402.4,584,726h139.1C723.1,325.7,398.9,0,0.3,0V139.1z"/>
	</g>
</g>
</svg>
